<?xml version="1.0" standalone="no"?>
<!DOCTYPE svg PUBLIC "-//W3C//DTD SVG 20010904//EN"
 "http://www.w3.org/TR/2001/REC-SVG-20010904/DTD/svg10.dtd">
<svg version="1.0" xmlns="http://www.w3.org/2000/svg"
 width="300.000000pt" height="268.000000pt" viewBox="0 0 300.000000 268.000000"
 preserveAspectRatio="xMidYMid meet">
<metadata>
Created by potrace 1.10, written by Peter Selinger 2001-2011
</metadata>
<g transform="translate(0.000000,268.000000) scale(0.100000,-0.100000)"
fill="#000000" stroke="none">
<path d="M1410 2584 c-290 -27 -545 -147 -751 -353 -223 -224 -335 -484 -346
-801 -7 -210 32 -402 117 -571 86 -170 252 -359 406 -461 383 -255 851 -275
1252 -54 68 38 77 46 77 72 0 34 -27 44 -53 21 -21 -18 -188 -107 -202 -107
-6 0 -10 45 -10 118 l0 118 -162 94 c-90 51 -179 103 -198 113 l-36 20 -197
-114 -197 -113 0 -118 c0 -65 -4 -118 -8 -118 -16 0 -188 93 -237 128 -135 97
-252 220 -327 347 -52 87 -100 185 -91 186 5 0 59 2 122 2 l114 2 20 35 c10
19 62 108 113 197 l94 163 -105 181 c-58 99 -105 184 -105 189 0 24 -47 33
-146 27 -56 -3 -104 -3 -107 0 -4 3 10 36 29 74 100 200 231 352 404 469 49
33 211 120 225 120 3 0 5 -53 5 -118 l0 -117 195 -113 c107 -61 199 -112 204
-112 6 0 77 39 158 86 82 47 167 97 191 110 l42 25 0 119 c0 66 3 120 6 120 3
0 51 -23 105 -51 228 -117 403 -297 523 -536 20 -40 36 -75 36 -78 0 -3 -51
-3 -113 1 -98 6 -114 5 -126 -10 -32 -39 -231 -391 -227 -400 3 -6 54 -94 114
-196 l108 -185 120 -1 c88 -1 118 -4 116 -13 -8 -37 -93 -191 -139 -252 -57
-76 -65 -112 -27 -117 17 -2 34 13 73 65 104 138 185 329 217 513 23 137 15
359 -20 493 -54 210 -159 393 -315 548 -224 223 -482 337 -796 352 -55 3 -120
3 -145 1z m350 -93 l75 -18 3 -111 3 -111 -33 -17 c-32 -16 -53 -28 -221 -128
l-78 -46 -82 48 c-45 27 -121 71 -169 98 l-88 49 3 109 2 109 60 15 c110 26
169 31 310 26 88 -2 168 -11 215 -23z m-1087 -824 c15 -28 56 -101 92 -162 36
-60 64 -114 63 -120 -2 -5 -43 -81 -93 -167 l-90 -157 -112 -1 -112 0 -10 38
c-40 152 -47 349 -17 502 10 52 19 101 22 108 2 9 35 12 116 12 l113 0 28 -53z
m1940 -42 c26 -121 26 -354 0 -475 l-19 -85 -114 -3 -115 -2 -73 127 c-40 71
-82 144 -93 164 l-21 36 77 134 c43 74 86 149 97 167 l20 33 111 -3 110 -3 20
-90z m-1014 -963 c26 -15 91 -52 144 -82 l97 -55 -2 -110 -3 -110 -70 -19
c-101 -27 -418 -27 -520 0 l-70 19 -3 110 -2 110 117 65 c64 36 139 79 167 97
47 30 53 31 74 17 13 -8 44 -27 71 -42z"/>
<path d="M1226 1828 c-8 -13 -64 -111 -126 -218 -62 -107 -117 -200 -122 -207
-6 -8 28 -75 106 -209 64 -108 116 -199 116 -201 0 -3 9 -18 21 -34 l21 -29
266 2 266 3 133 229 132 229 -24 41 c-14 23 -73 125 -132 229 l-107 187 -268
0 c-267 0 -268 0 -282 -22z m622 -238 c61 -106 112 -198 112 -204 0 -7 -5 -17
-12 -24 -7 -7 -58 -92 -114 -190 l-101 -177 -229 0 -228 0 -108 185 c-59 102
-111 190 -114 197 -3 7 38 89 93 182 54 93 105 182 114 198 l15 28 230 -1 229
-1 113 -193z"/>
<path d="M2249 544 c-9 -11 -10 -20 -2 -32 15 -24 44 -27 59 -7 28 38 -27 75
-57 39z"/>
</g>
</svg>
